<svg width="321" height="48" viewBox="0 0 321 48" fill="none" xmlns="http://www.w3.org/2000/svg">
<path d="M21.5 0C9.632 0 0 9.40797 0 21C0 32.592 9.632 42 21.5 42C33.368 42 43 32.592 43 21C43 9.40797 33.368 0 21.5 0ZM24.5315 33.789V37.8H18.791V33.747C15.1145 32.991 11.997 30.6809 11.7605 26.607H15.9745C16.1895 28.812 17.7375 30.534 21.672 30.534C25.886 30.534 26.832 28.476 26.832 27.195C26.832 25.452 25.886 23.814 21.0915 22.701C15.7595 21.441 12.1045 19.299 12.1045 14.994C12.1045 11.382 15.093 9.02997 18.791 8.25295V4.20003H24.5315V8.29498C28.5305 9.24002 30.53 12.201 30.659 15.414H26.445C26.3375 13.083 25.069 11.487 21.672 11.487C18.447 11.487 16.512 12.915 16.512 14.9309C16.512 16.6949 17.9095 17.85 22.2525 18.942C26.5955 20.034 31.2395 21.8609 31.2395 27.1529C31.218 30.996 28.2725 33.0959 24.5315 33.789Z" fill="white"/>
<path d="M79.3699 11.248C79.7059 11.248 80.1139 11.476 80.5939 11.932C81.0979 12.364 81.3499 12.736 81.3499 13.048C81.3499 14.512 81.3019 16.516 81.2059 19.06C81.1819 19.684 81.1579 20.44 81.1339 21.328C81.1099 22.192 81.0979 23.2 81.0979 24.352C81.0979 28 81.3139 30.688 81.7459 32.416C81.7219 32.992 81.4939 33.412 81.0619 33.676C80.6299 33.916 80.1979 34.036 79.7659 34.036C78.8059 34.036 78.1699 33.7 77.8579 33.028C77.5699 32.356 77.4259 31.396 77.4259 30.148C77.4259 25.516 77.4739 21.256 77.5699 17.368C74.8099 20.44 72.6619 23.02 71.1259 25.108C71.1259 25.108 70.9099 25.252 70.4779 25.54C70.0699 25.9 69.7339 26.08 69.4699 26.08C68.8459 26.08 68.3299 25.924 67.9219 25.612C67.5139 25.3 67.1179 24.844 66.7339 24.244L65.0059 21.796C63.8059 20.116 62.9299 18.844 62.3779 17.98C62.3779 20.188 62.4859 23.188 62.7019 26.98C62.8699 29.164 62.9539 30.808 62.9539 31.912C62.9539 32.488 62.8099 32.98 62.5219 33.388C62.2339 33.772 61.7779 33.964 61.1539 33.964C60.5299 33.964 60.0139 33.844 59.6059 33.604C59.2219 33.364 59.0179 33.004 58.9939 32.524C59.0179 32.116 59.0299 31.444 59.0299 30.508C59.0299 28.636 58.9699 26.356 58.8499 23.668L58.7779 21.724L58.7059 19.204C58.6819 18.46 58.6579 17.596 58.6339 16.612C58.6099 15.604 58.5979 14.512 58.5979 13.336C58.5979 11.896 59.3779 11.176 60.9379 11.176C61.4179 11.176 61.8979 11.296 62.3779 11.536C62.8819 11.776 63.2539 12.124 63.4939 12.58C63.6859 13.42 64.3939 14.812 65.6179 16.756C66.8419 18.7 68.0419 20.524 69.2179 22.228C70.2739 20.884 71.1379 19.876 71.8099 19.204C72.9619 18.028 73.9099 16.936 74.6539 15.928C75.4219 14.92 76.2499 13.708 77.1379 12.292C77.3539 12.004 77.6659 11.764 78.0739 11.572C78.4819 11.356 78.9139 11.248 79.3699 11.248ZM88.0506 10.888C88.8906 10.96 89.6226 11.188 90.2466 11.572C90.8706 11.932 91.1826 12.484 91.1826 13.228C91.1826 13.78 90.9186 14.224 90.3906 14.56C89.8866 14.872 89.2746 15.028 88.5546 15.028C87.8586 15.028 87.3786 14.848 87.1146 14.488C86.8506 14.128 86.7186 13.756 86.7186 13.372C86.7186 12.652 86.7906 12.052 86.9346 11.572C87.1026 11.092 87.4746 10.864 88.0506 10.888ZM90.9306 26.836V27.88C90.9306 28.816 90.9546 29.704 91.0026 30.544C91.0746 31.36 91.1586 32.188 91.2546 33.028C91.2306 33.268 91.0506 33.52 90.7146 33.784C90.3786 34.024 90.0786 34.144 89.8146 34.144C89.3586 34.144 88.8906 34.06 88.4106 33.892C87.9546 33.7 87.6786 33.472 87.5826 33.208C87.4386 32.44 87.3666 31.756 87.3666 31.156C87.3666 29.188 87.3066 26.98 87.1866 24.532C87.0906 22.372 87.0426 20.86 87.0426 19.996C87.0426 19.564 87.2586 19.192 87.6906 18.88C88.1226 18.568 88.5786 18.412 89.0586 18.412C89.7546 18.412 90.2346 18.568 90.4986 18.88C90.7866 19.192 90.9306 19.684 90.9306 20.356V26.836ZM111.842 31.228C111.962 31.276 112.154 31.336 112.418 31.408C112.682 31.48 112.874 31.552 112.994 31.624C113.114 31.696 113.174 31.804 113.174 31.948C113.198 32.524 112.982 33.004 112.526 33.388C112.094 33.748 111.578 33.928 110.978 33.928C110.042 33.928 109.31 33.676 108.782 33.172C108.254 32.668 107.87 31.9 107.63 30.868C107.534 30.46 107.486 29.896 107.486 29.176C107.486 28.768 107.51 28.108 107.558 27.196C107.606 26.236 107.63 25.468 107.63 24.892C107.63 24.052 107.39 23.32 106.91 22.696C106.454 22.048 105.806 21.724 104.966 21.724C104.462 21.724 103.934 21.88 103.382 22.192C102.83 22.48 102.446 22.84 102.23 23.272C101.87 23.968 101.618 24.724 101.474 25.54C101.21 26.98 101.078 28.48 101.078 30.04C101.078 30.784 101.09 31.36 101.114 31.768C101.114 31.864 101.114 32.056 101.114 32.344C101.138 32.608 101.114 32.86 101.042 33.1C100.994 33.316 100.898 33.52 100.754 33.712C100.634 33.832 100.442 33.928 100.178 34C99.9376 34.096 99.7096 34.144 99.4936 34.144C99.1576 34.144 98.7376 34 98.2336 33.712C97.7296 33.424 97.4416 33.1 97.3696 32.74L97.3336 32.128C97.3336 31.912 97.3576 31.66 97.4056 31.372C97.6936 29.692 97.8376 28.228 97.8376 26.98C97.8376 26.428 97.8256 25.996 97.8016 25.684L97.7656 23.992C97.7656 23.416 97.6216 22.864 97.3336 22.336C97.0456 21.784 96.7096 21.508 96.3256 21.508C96.2056 21.508 96.0376 21.556 95.8216 21.652C95.6056 21.724 95.4256 21.76 95.2816 21.76C95.0416 21.76 94.7776 21.64 94.4896 21.4C94.2256 21.16 94.0936 20.908 94.0936 20.644C94.0936 20.14 94.2616 19.732 94.5976 19.42C94.9576 19.132 95.3056 18.904 95.6416 18.736C96.0016 18.568 96.4096 18.484 96.8656 18.484C97.2496 18.484 97.5616 18.52 97.8016 18.592C98.0416 18.664 98.3656 18.82 98.7736 19.06C98.9896 19.18 99.2416 19.444 99.5296 19.852C99.8176 20.26 100.058 20.836 100.25 21.58C100.874 20.428 101.642 19.624 102.554 19.168C103.49 18.688 104.678 18.448 106.118 18.448C106.67 18.448 107.258 18.628 107.882 18.988C108.53 19.348 109.082 19.768 109.538 20.248C109.97 20.776 110.33 21.436 110.618 22.228C110.906 22.996 111.05 23.692 111.05 24.316C111.05 24.676 111.026 25.264 110.978 26.08C110.906 26.728 110.87 27.412 110.87 28.132C110.87 29.812 111.194 30.844 111.842 31.228ZM130.469 34.108C128.669 34.108 127.457 33.412 126.833 32.02C126.521 31.324 126.317 30.424 126.221 29.32C126.125 28.192 126.077 26.872 126.077 25.36V24.244C126.077 22.516 125.501 21.652 124.349 21.652C123.677 21.652 123.005 22 122.333 22.696C121.661 23.368 121.097 24.268 120.641 25.396C120.209 26.5 119.993 27.652 119.993 28.852C119.993 29.644 120.029 30.364 120.101 31.012C120.149 31.828 120.173 32.452 120.173 32.884C120.173 33.7 119.609 34.108 118.481 34.108C117.929 34.108 117.437 33.988 117.005 33.748C116.597 33.508 116.393 33.196 116.393 32.812C116.489 31.588 116.537 30.076 116.537 28.276L116.501 23.524C116.501 22.756 116.441 19.912 116.321 14.992L116.213 11.68C116.213 11.152 116.453 10.696 116.933 10.312C117.413 9.904 117.953 9.7 118.553 9.7C119.081 9.7 119.465 9.82 119.705 10.06C119.945 10.3 120.065 10.672 120.065 11.176C120.065 11.8 120.053 12.532 120.029 13.372C120.005 14.188 119.981 14.812 119.957 15.244C119.885 16.468 119.849 17.692 119.849 18.916C119.849 20.116 119.825 21.064 119.777 21.76C120.497 20.704 121.313 19.924 122.225 19.42C123.161 18.892 124.253 18.628 125.501 18.628C126.413 18.628 127.253 19.036 128.021 19.852C128.813 20.644 129.293 21.556 129.461 22.588C129.509 23.116 129.533 23.896 129.533 24.928L129.497 27.556C129.497 27.964 129.521 28.6 129.569 29.464C129.593 29.872 129.725 30.304 129.965 30.76C130.229 31.216 130.529 31.552 130.865 31.768C131.177 31.96 131.381 32.152 131.477 32.344C131.573 32.536 131.621 32.752 131.621 32.992C131.621 33.232 131.513 33.484 131.297 33.748C131.081 33.988 130.805 34.108 130.469 34.108ZM147.848 34.144C147.032 34.144 146.408 34.024 145.976 33.784C145.544 33.52 145.076 33.04 144.572 32.344C143.948 32.896 143.012 33.34 141.764 33.676C140.54 34.012 139.484 34.18 138.596 34.18C137.132 34.18 135.944 33.784 135.032 32.992C134.144 32.176 133.7 30.988 133.7 29.428C133.7 28.756 133.88 28.144 134.24 27.592C134.624 27.016 135.116 26.512 135.716 26.08C136.388 25.624 137.18 25.264 138.092 25C139.028 24.736 139.88 24.604 140.648 24.604C141.944 24.604 143.096 24.724 144.104 24.964V24.928C144.104 23.632 143.78 22.744 143.132 22.264C142.508 21.76 141.5 21.508 140.108 21.508C139.22 21.508 138.452 21.904 137.804 22.696C137.564 23.008 137.06 23.164 136.292 23.164C135.908 23.164 135.62 23.008 135.428 22.696C135.26 22.36 135.176 22.024 135.176 21.688C135.176 20.992 135.464 20.392 136.04 19.888C136.64 19.384 137.36 19.012 138.2 18.772C139.04 18.508 139.82 18.376 140.54 18.376C141.236 18.376 142.064 18.52 143.024 18.808C143.984 19.096 144.764 19.48 145.364 19.96C146.084 20.584 146.636 21.316 147.02 22.156C147.428 22.972 147.632 23.872 147.632 24.856C147.632 25.168 147.608 25.636 147.56 26.26C147.512 26.98 147.488 27.568 147.488 28.024C147.488 28.24 147.464 28.516 147.416 28.852C147.368 29.284 147.344 29.644 147.344 29.932C147.344 30.244 147.44 30.544 147.632 30.832C147.824 31.12 148.088 31.36 148.424 31.552C148.736 31.72 148.94 31.9 149.036 32.092C149.132 32.284 149.18 32.5 149.18 32.74C149.18 32.98 149.024 33.28 148.712 33.64C148.424 33.976 148.136 34.144 147.848 34.144ZM140.648 27.268C139.712 27.268 138.884 27.448 138.164 27.808C137.444 28.168 137.084 28.804 137.084 29.716C137.084 30.172 137.24 30.556 137.552 30.868C137.888 31.18 138.248 31.336 138.632 31.336C139.664 31.336 140.528 31.228 141.224 31.012C141.92 30.796 142.76 30.4 143.744 29.824C143.864 29.44 143.936 28.9 143.96 28.204C143.96 27.94 143.972 27.736 143.996 27.592C142.7 27.376 141.584 27.268 140.648 27.268ZM162.111 25.756C163.071 26.308 163.743 26.86 164.127 27.412C164.511 27.94 164.703 28.636 164.703 29.5C164.703 30.364 164.451 31.132 163.947 31.804C163.443 32.452 162.795 32.956 162.003 33.316C161.427 33.58 160.707 33.784 159.843 33.928C159.003 34.072 158.343 34.144 157.863 34.144C157.023 34.144 156.111 33.988 155.127 33.676C154.143 33.364 153.303 32.92 152.607 32.344C151.935 31.768 151.599 31.096 151.599 30.328C151.599 29.848 151.755 29.476 152.067 29.212C152.379 28.924 152.787 28.78 153.291 28.78C153.699 28.78 154.131 29.068 154.587 29.644C155.043 30.148 155.571 30.532 156.171 30.796C156.795 31.06 157.407 31.192 158.007 31.192C160.287 31.192 161.427 30.676 161.427 29.644C161.427 29.428 161.355 29.224 161.211 29.032C161.067 28.816 160.935 28.672 160.815 28.6C160.599 28.432 160.299 28.288 159.915 28.168C159.531 28.048 159.147 27.952 158.763 27.88C158.379 27.784 158.091 27.712 157.899 27.664C157.707 27.616 157.299 27.532 156.675 27.412C156.075 27.292 155.499 27.088 154.947 26.8C154.035 26.368 153.291 25.84 152.715 25.216C152.163 24.592 151.887 23.788 151.887 22.804C151.887 22.252 152.019 21.7 152.283 21.148C152.571 20.572 152.955 20.14 153.435 19.852C154.155 19.396 154.947 19.048 155.811 18.808C156.675 18.568 157.479 18.448 158.223 18.448C158.823 18.448 159.495 18.508 160.239 18.628C161.007 18.748 161.559 18.916 161.895 19.132C162.519 19.468 162.975 19.816 163.263 20.176C163.551 20.536 163.695 20.992 163.695 21.544C163.695 21.808 163.635 22.072 163.515 22.336C163.395 22.576 163.251 22.744 163.083 22.84C162.699 22.984 162.363 23.056 162.075 23.056C161.859 23.056 161.679 23.02 161.535 22.948C161.391 22.852 161.259 22.756 161.139 22.66C161.043 22.564 160.983 22.504 160.959 22.48C160.647 22.144 160.299 21.88 159.915 21.688C159.531 21.496 158.967 21.4 158.223 21.4C157.743 21.4 157.275 21.472 156.819 21.616C156.387 21.736 156.051 21.892 155.811 22.084C155.619 22.228 155.487 22.36 155.415 22.48C155.343 22.576 155.307 22.708 155.307 22.876C155.307 23.548 155.979 24.04 157.323 24.352C158.691 24.664 159.411 24.832 159.483 24.856C159.627 24.904 160.023 25.024 160.671 25.216C161.343 25.408 161.823 25.588 162.111 25.756ZM180.931 32.704C180.859 33.064 180.643 33.376 180.283 33.64C179.947 33.88 179.467 34 178.843 34C178.315 34 177.895 33.856 177.583 33.568C177.295 33.28 177.139 32.98 177.115 32.668C177.259 31.66 177.331 30.148 177.331 28.132C177.331 26.932 177.259 25.084 177.115 22.588C176.947 20.236 176.863 18.148 176.863 16.324C176.863 15.34 176.911 14.332 177.007 13.3C177.007 12.964 177.199 12.604 177.583 12.22C177.991 11.836 178.543 11.596 179.239 11.5C181.519 11.26 184.315 11.14 187.627 11.14H188.779C189.643 11.14 190.483 11.296 191.299 11.608C192.139 11.92 192.559 12.46 192.559 13.228C192.559 13.732 192.439 14.128 192.199 14.416C191.959 14.704 191.515 14.848 190.867 14.848C190.555 14.848 190.195 14.824 189.787 14.776C189.379 14.728 189.091 14.692 188.923 14.668C188.011 14.524 187.303 14.452 186.799 14.452C184.015 14.452 181.915 14.644 180.499 15.028C180.499 15.82 180.523 17.104 180.571 18.88L180.607 21.184C181.855 21.184 182.971 21.136 183.955 21.04C184.939 20.92 185.503 20.848 185.647 20.824C186.895 20.68 187.723 20.608 188.131 20.608C188.707 20.608 189.187 20.74 189.571 21.004C189.979 21.244 190.183 21.628 190.183 22.156C190.183 23.356 189.343 23.956 187.663 23.956C187.255 23.956 186.895 23.968 186.583 23.992C186.271 24.016 186.007 24.04 185.791 24.064C184.927 24.16 184.243 24.208 183.739 24.208C182.635 24.208 181.699 24.244 180.931 24.316C180.931 25.204 180.967 26.14 181.039 27.124C181.039 27.436 181.051 27.916 181.075 28.564C181.123 29.212 181.147 29.8 181.147 30.328C181.147 30.784 181.135 31.204 181.111 31.588C181.087 31.972 181.027 32.344 180.931 32.704ZM196.401 10.888C197.241 10.96 197.961 11.188 198.561 11.572C199.185 11.932 199.497 12.484 199.497 13.228C199.497 13.78 199.245 14.224 198.741 14.56C198.237 14.872 197.613 15.028 196.869 15.028C196.173 15.028 195.693 14.848 195.429 14.488C195.165 14.128 195.033 13.756 195.033 13.372C195.033 12.676 195.117 12.088 195.285 11.608C195.453 11.104 195.825 10.864 196.401 10.888ZM195.681 25.756V24.712C195.681 23.512 195.621 22.42 195.501 21.436C195.405 20.428 195.345 19.804 195.321 19.564C195.345 19.3 195.525 19.048 195.861 18.808C196.197 18.568 196.497 18.448 196.761 18.448C197.217 18.448 197.673 18.544 198.129 18.736C198.609 18.904 198.909 19.12 199.029 19.384C199.149 20.272 199.209 20.956 199.209 21.436C199.209 22.492 199.257 24.22 199.353 26.62L199.389 28.024L199.461 29.392C199.485 29.776 199.509 30.232 199.533 30.76C199.557 31.288 199.569 31.888 199.569 32.56C199.569 33.016 199.341 33.4 198.885 33.712C198.453 34.024 197.997 34.18 197.517 34.18C196.821 34.18 196.329 34.024 196.041 33.712C195.777 33.4 195.645 32.908 195.645 32.236L195.681 25.756ZM220.193 31.228C220.313 31.276 220.505 31.336 220.769 31.408C221.033 31.48 221.225 31.552 221.345 31.624C221.465 31.696 221.525 31.804 221.525 31.948C221.549 32.524 221.333 33.004 220.877 33.388C220.445 33.748 219.929 33.928 219.329 33.928C218.393 33.928 217.661 33.676 217.133 33.172C216.605 32.668 216.221 31.9 215.981 30.868C215.885 30.46 215.837 29.896 215.837 29.176C215.837 28.768 215.861 28.108 215.909 27.196C215.957 26.236 215.981 25.468 215.981 24.892C215.981 24.052 215.741 23.32 215.261 22.696C214.805 22.048 214.157 21.724 213.317 21.724C212.813 21.724 212.285 21.88 211.733 22.192C211.181 22.48 210.797 22.84 210.581 23.272C210.221 23.968 209.969 24.724 209.825 25.54C209.561 26.98 209.429 28.48 209.429 30.04C209.429 30.784 209.441 31.36 209.465 31.768C209.465 31.864 209.465 32.056 209.465 32.344C209.489 32.608 209.465 32.86 209.393 33.1C209.345 33.316 209.249 33.52 209.105 33.712C208.985 33.832 208.793 33.928 208.529 34C208.289 34.096 208.061 34.144 207.845 34.144C207.509 34.144 207.089 34 206.585 33.712C206.081 33.424 205.793 33.1 205.721 32.74L205.685 32.128C205.685 31.912 205.709 31.66 205.757 31.372C206.045 29.692 206.189 28.228 206.189 26.98C206.189 26.428 206.177 25.996 206.153 25.684L206.117 23.992C206.117 23.416 205.973 22.864 205.685 22.336C205.397 21.784 205.061 21.508 204.677 21.508C204.557 21.508 204.389 21.556 204.173 21.652C203.957 21.724 203.777 21.76 203.633 21.76C203.393 21.76 203.129 21.64 202.841 21.4C202.577 21.16 202.445 20.908 202.445 20.644C202.445 20.14 202.613 19.732 202.949 19.42C203.309 19.132 203.657 18.904 203.993 18.736C204.353 18.568 204.761 18.484 205.217 18.484C205.601 18.484 205.913 18.52 206.153 18.592C206.393 18.664 206.717 18.82 207.125 19.06C207.341 19.18 207.593 19.444 207.881 19.852C208.169 20.26 208.409 20.836 208.601 21.58C209.225 20.428 209.993 19.624 210.905 19.168C211.841 18.688 213.029 18.448 214.469 18.448C215.021 18.448 215.609 18.628 216.233 18.988C216.881 19.348 217.433 19.768 217.889 20.248C218.321 20.776 218.681 21.436 218.969 22.228C219.257 22.996 219.401 23.692 219.401 24.316C219.401 24.676 219.377 25.264 219.329 26.08C219.257 26.728 219.221 27.412 219.221 28.132C219.221 29.812 219.545 30.844 220.193 31.228ZM240.513 32.272C240.513 32.8 240.225 33.244 239.649 33.604C239.097 33.964 238.581 34.144 238.101 34.144C237.189 34.144 236.457 34.036 235.905 33.82C235.377 33.58 234.885 33.148 234.429 32.524C233.805 33.076 232.953 33.496 231.873 33.784C230.793 34.048 229.797 34.18 228.885 34.18C227.397 34.18 226.173 33.784 225.213 32.992C224.253 32.176 223.773 30.988 223.773 29.428C223.773 28.756 223.953 28.144 224.313 27.592C224.673 27.016 225.165 26.512 225.789 26.08C226.485 25.624 227.277 25.276 228.165 25.036C229.053 24.772 229.977 24.64 230.937 24.64C231.441 24.64 232.041 24.736 232.737 24.928C233.433 25.12 233.973 25.324 234.357 25.54V24.964C234.357 23.668 234.045 22.78 233.421 22.3C232.797 21.796 231.789 21.544 230.397 21.544C229.989 21.544 229.581 21.628 229.173 21.796C228.789 21.964 228.345 22.192 227.841 22.48C227.169 22.84 226.533 23.02 225.933 23.02C225.717 23.02 225.513 22.876 225.321 22.588C225.129 22.276 225.033 22 225.033 21.76C225.033 21.064 225.357 20.464 226.005 19.96C226.677 19.456 227.469 19.084 228.381 18.844C229.293 18.58 230.109 18.448 230.829 18.448C231.549 18.448 232.377 18.592 233.313 18.88C234.249 19.144 235.017 19.516 235.617 19.996C236.337 20.62 236.889 21.352 237.273 22.192C237.681 23.008 237.885 23.908 237.885 24.892C237.885 25.204 237.861 25.672 237.813 26.296C237.765 26.968 237.741 27.544 237.741 28.024C237.741 28.24 237.717 28.564 237.669 28.996C237.621 29.524 237.597 29.944 237.597 30.256C237.597 30.544 237.705 30.796 237.921 31.012C238.137 31.204 238.389 31.3 238.677 31.3L239.685 31.264C239.949 31.264 240.153 31.36 240.297 31.552C240.441 31.744 240.513 31.984 240.513 32.272ZM228.921 31.336C229.953 31.336 230.817 31.228 231.513 31.012C232.209 30.796 233.049 30.4 234.033 29.824C234.129 29.416 234.189 28.876 234.213 28.204C232.893 27.58 231.801 27.268 230.937 27.268C229.953 27.268 229.077 27.448 228.309 27.808C227.541 28.168 227.157 28.804 227.157 29.716C227.157 30.172 227.349 30.556 227.733 30.868C228.117 31.18 228.513 31.336 228.921 31.336ZM242.618 21.328C242.426 21.184 242.27 21.04 242.15 20.896C242.03 20.728 241.97 20.44 241.97 20.032C241.97 19.576 242.126 19.228 242.438 18.988C242.774 18.724 243.158 18.592 243.59 18.592C244.43 18.592 245.15 18.808 245.75 19.24C246.374 19.672 246.83 20.272 247.118 21.04C247.646 20.056 248.318 19.384 249.134 19.024C249.95 18.64 251.078 18.448 252.518 18.448C253.094 18.448 253.682 18.628 254.282 18.988C254.906 19.324 255.47 19.744 255.974 20.248C256.382 20.776 256.73 21.436 257.018 22.228C257.306 22.996 257.45 23.692 257.45 24.316C257.45 24.676 257.426 25.264 257.378 26.08C257.33 26.944 257.306 27.628 257.306 28.132C257.306 29.812 257.63 30.844 258.278 31.228C258.374 31.276 258.554 31.336 258.818 31.408C259.082 31.48 259.274 31.552 259.394 31.624C259.538 31.696 259.61 31.804 259.61 31.948C259.634 32.524 259.418 33.004 258.962 33.388C258.53 33.748 258.002 33.928 257.378 33.928C256.442 33.928 255.71 33.676 255.182 33.172C254.654 32.668 254.282 31.9 254.066 30.868C253.946 30.484 253.886 29.92 253.886 29.176C253.886 28.768 253.91 28.108 253.958 27.196C254.03 26.476 254.066 25.708 254.066 24.892C254.066 24.052 253.826 23.32 253.346 22.696C252.866 22.048 252.206 21.724 251.366 21.724C250.862 21.724 250.334 21.88 249.782 22.192C249.23 22.48 248.846 22.84 248.63 23.272C248.27 24.016 248.03 24.772 247.91 25.54C247.622 27.028 247.478 28.456 247.478 29.824C247.478 30.16 247.502 30.808 247.55 31.768C247.55 31.84 247.55 32.02 247.55 32.308C247.55 32.572 247.514 32.824 247.442 33.064C247.394 33.304 247.298 33.52 247.154 33.712C247.058 33.808 246.878 33.904 246.614 34C246.35 34.096 246.122 34.144 245.93 34.144C245.594 34.144 245.174 34 244.67 33.712C244.166 33.424 243.866 33.1 243.77 32.74L243.734 32.236C243.734 32.044 243.758 31.756 243.806 31.372C244.094 29.692 244.238 28.228 244.238 26.98C244.238 26.428 244.226 26.008 244.202 25.72L244.166 24.064C244.166 23.56 244.022 23.08 243.734 22.624C243.446 22.144 243.074 21.712 242.618 21.328ZM266.673 36.664C266.673 36.448 266.745 36.232 266.889 36.016C267.057 35.8 267.273 35.548 267.537 35.26C267.969 34.732 268.329 34.336 268.617 34.072C267.345 33.928 266.181 33.532 265.125 32.884C264.093 32.212 263.265 31.336 262.641 30.256C262.041 29.176 261.741 27.964 261.741 26.62C261.741 25.084 262.089 23.68 262.785 22.408C263.481 21.136 264.417 20.14 265.593 19.42C266.769 18.7 268.053 18.34 269.445 18.34C270.237 18.34 271.053 18.484 271.893 18.772C272.733 19.06 273.441 19.48 274.017 20.032C274.593 20.584 274.881 21.232 274.881 21.976C274.881 23.032 274.341 23.56 273.261 23.56C272.901 23.56 272.601 23.476 272.361 23.308C272.121 23.14 271.857 22.888 271.569 22.552C270.849 21.76 270.225 21.364 269.697 21.364C269.001 21.364 268.317 21.568 267.645 21.976C266.997 22.384 266.469 22.96 266.061 23.704C265.653 24.448 265.449 25.276 265.449 26.188C265.449 27.196 265.641 28.036 266.025 28.708C266.433 29.38 267.057 29.956 267.897 30.436C268.209 30.604 268.569 30.736 268.977 30.832C269.409 30.928 269.781 30.976 270.093 30.976C270.789 30.976 271.665 30.7 272.721 30.148C273.105 29.956 273.429 29.812 273.693 29.716C273.957 29.62 274.233 29.572 274.521 29.572C274.785 29.572 275.085 29.692 275.421 29.932C275.757 30.172 275.925 30.472 275.925 30.832C275.925 31.648 275.469 32.332 274.557 32.884C273.645 33.412 272.553 33.784 271.281 34C271.209 34.144 270.957 34.48 270.525 35.008C270.045 35.656 269.781 36.016 269.733 36.088C270.717 36.184 271.497 36.46 272.073 36.916C272.673 37.396 272.973 38.068 272.973 38.932C272.973 39.7 272.469 40.48 271.461 41.272C271.125 41.512 270.645 41.704 270.021 41.848C269.421 42.016 268.725 42.1 267.933 42.1C267.357 42.1 266.853 41.944 266.421 41.632C266.013 41.344 265.809 40.96 265.809 40.48C265.809 40.288 265.893 40.12 266.061 39.976C266.253 39.832 266.445 39.76 266.637 39.76C266.877 39.76 267.117 39.832 267.357 39.976C267.597 40.12 267.813 40.192 268.005 40.192C268.293 40.192 268.605 40.156 268.941 40.084C269.301 40.012 269.577 39.928 269.769 39.832C269.937 39.736 270.081 39.58 270.201 39.364C270.321 39.172 270.381 38.956 270.381 38.716C270.381 38.236 270.069 37.936 269.445 37.816C268.845 37.696 268.197 37.636 267.501 37.636C267.309 37.636 267.117 37.516 266.925 37.276C266.757 37.06 266.673 36.856 266.673 36.664ZM292.656 34.144C291.84 34.144 291.216 34.024 290.784 33.784C290.352 33.52 289.884 33.04 289.38 32.344C288.756 32.896 287.82 33.34 286.572 33.676C285.348 34.012 284.292 34.18 283.404 34.18C281.94 34.18 280.752 33.784 279.84 32.992C278.952 32.176 278.508 30.988 278.508 29.428C278.508 28.756 278.688 28.144 279.048 27.592C279.432 27.016 279.924 26.512 280.524 26.08C281.196 25.624 281.988 25.264 282.9 25C283.836 24.736 284.688 24.604 285.456 24.604C286.752 24.604 287.904 24.724 288.912 24.964V24.928C288.912 23.632 288.588 22.744 287.94 22.264C287.316 21.76 286.308 21.508 284.916 21.508C284.028 21.508 283.26 21.904 282.612 22.696C282.372 23.008 281.868 23.164 281.1 23.164C280.716 23.164 280.428 23.008 280.236 22.696C280.068 22.36 279.984 22.024 279.984 21.688C279.984 20.992 280.272 20.392 280.848 19.888C281.448 19.384 282.168 19.012 283.008 18.772C283.848 18.508 284.628 18.376 285.348 18.376C286.044 18.376 286.872 18.52 287.832 18.808C288.792 19.096 289.572 19.48 290.172 19.96C290.892 20.584 291.444 21.316 291.828 22.156C292.236 22.972 292.44 23.872 292.44 24.856C292.44 25.168 292.416 25.636 292.368 26.26C292.32 26.98 292.296 27.568 292.296 28.024C292.296 28.24 292.272 28.516 292.224 28.852C292.176 29.284 292.152 29.644 292.152 29.932C292.152 30.244 292.248 30.544 292.44 30.832C292.632 31.12 292.896 31.36 293.232 31.552C293.544 31.72 293.748 31.9 293.844 32.092C293.94 32.284 293.988 32.5 293.988 32.74C293.988 32.98 293.832 33.28 293.52 33.64C293.232 33.976 292.944 34.144 292.656 34.144ZM285.456 27.268C284.52 27.268 283.692 27.448 282.972 27.808C282.252 28.168 281.892 28.804 281.892 29.716C281.892 30.172 282.048 30.556 282.36 30.868C282.696 31.18 283.056 31.336 283.44 31.336C284.472 31.336 285.336 31.228 286.032 31.012C286.728 30.796 287.568 30.4 288.552 29.824C288.672 29.44 288.744 28.9 288.768 28.204C288.768 27.94 288.78 27.736 288.804 27.592C287.508 27.376 286.392 27.268 285.456 27.268ZM306.919 25.756C307.879 26.308 308.551 26.86 308.935 27.412C309.319 27.94 309.511 28.636 309.511 29.5C309.511 30.364 309.259 31.132 308.755 31.804C308.251 32.452 307.603 32.956 306.811 33.316C306.235 33.58 305.515 33.784 304.651 33.928C303.811 34.072 303.151 34.144 302.671 34.144C301.831 34.144 300.919 33.988 299.935 33.676C298.951 33.364 298.111 32.92 297.415 32.344C296.743 31.768 296.407 31.096 296.407 30.328C296.407 29.848 296.563 29.476 296.875 29.212C297.187 28.924 297.595 28.78 298.099 28.78C298.507 28.78 298.939 29.068 299.395 29.644C299.851 30.148 300.379 30.532 300.979 30.796C301.603 31.06 302.215 31.192 302.815 31.192C305.095 31.192 306.235 30.676 306.235 29.644C306.235 29.428 306.163 29.224 306.019 29.032C305.875 28.816 305.743 28.672 305.623 28.6C305.407 28.432 305.107 28.288 304.723 28.168C304.339 28.048 303.955 27.952 303.571 27.88C303.187 27.784 302.899 27.712 302.707 27.664C302.515 27.616 302.107 27.532 301.483 27.412C300.883 27.292 300.307 27.088 299.755 26.8C298.843 26.368 298.099 25.84 297.523 25.216C296.971 24.592 296.695 23.788 296.695 22.804C296.695 22.252 296.827 21.7 297.091 21.148C297.379 20.572 297.763 20.14 298.243 19.852C298.963 19.396 299.755 19.048 300.619 18.808C301.483 18.568 302.287 18.448 303.031 18.448C303.631 18.448 304.303 18.508 305.047 18.628C305.815 18.748 306.367 18.916 306.703 19.132C307.327 19.468 307.783 19.816 308.071 20.176C308.359 20.536 308.503 20.992 308.503 21.544C308.503 21.808 308.443 22.072 308.323 22.336C308.203 22.576 308.059 22.744 307.891 22.84C307.507 22.984 307.171 23.056 306.883 23.056C306.667 23.056 306.487 23.02 306.343 22.948C306.199 22.852 306.067 22.756 305.947 22.66C305.851 22.564 305.791 22.504 305.767 22.48C305.455 22.144 305.107 21.88 304.723 21.688C304.339 21.496 303.775 21.4 303.031 21.4C302.551 21.4 302.083 21.472 301.627 21.616C301.195 21.736 300.859 21.892 300.619 22.084C300.427 22.228 300.295 22.36 300.223 22.48C300.151 22.576 300.115 22.708 300.115 22.876C300.115 23.548 300.787 24.04 302.131 24.352C303.499 24.664 304.219 24.832 304.291 24.856C304.435 24.904 304.831 25.024 305.479 25.216C306.151 25.408 306.631 25.588 306.919 25.756Z" fill="#FCFCFC"/>
</svg>
